<svg xmlns="http://www.w3.org/2000/svg" xmlns:xlink="http://www.w3.org/1999/xlink" width="500" zoomAndPan="magnify" viewBox="0 0 375 374.999991" height="500" preserveAspectRatio="xMidYMid meet" version="1.0"><defs><clipPath id="b98424327d"><path d="M 48 96 L 346.46875 96 L 346.46875 277 L 48 277 Z M 48 96 " clip-rule="nonzero"/></clipPath><clipPath id="32c6592d03"><path d="M 28.46875 45 L 291 45 L 291 330.871094 L 28.46875 330.871094 Z M 28.46875 45 " clip-rule="nonzero"/></clipPath></defs><rect x="-37.5" width="450" fill="#ffffff" y="-37.499999" height="449.999989" fill-opacity="1"/><rect x="-37.5" width="450" fill="#ffffff" y="-37.499999" height="449.999989" fill-opacity="1"/><g clip-path="url(#b98424327d)"><path fill="#000000" d="M 170.425781 169.070312 C 161.160156 179.871094 153.414062 189.277344 145.339844 198.023438 C 143.417969 200.144531 139.84375 201.46875 137.332031 200.9375 C 120.386719 197.625 107.347656 181.789062 104.832031 162.179688 C 101.851562 138.789062 108.738281 117.121094 124.621094 108.246094 C 135.210938 102.347656 147.390625 97.710938 158.90625 97.511719 C 220.332031 96.449219 281.753906 96.914062 343.242188 96.914062 C 343.972656 96.914062 344.699219 97.378906 346.355469 99.960938 C 341.125 103.011719 336.226562 107.316406 330.734375 108.839844 C 306.90625 115.464844 283.144531 122.355469 259.050781 127.128906 C 225.625 133.753906 191.9375 138.523438 158.378906 144.089844 C 152.6875 145.019531 148.054688 147.203125 148.054688 155.816406 C 148.054688 164.234375 152.554688 166.949219 158.179688 167.941406 C 161.554688 168.605469 165.0625 168.605469 170.425781 169.070312 Z M 49.035156 275.546875 C 50.425781 275.746094 51.746094 276.011719 53.136719 276.011719 C 114.230469 276.011719 175.324219 276.339844 236.414062 275.613281 C 247.867188 275.480469 259.78125 273.09375 270.570312 268.523438 C 291.617188 259.578125 301.148438 234.132812 296.316406 205.113281 C 292.941406 184.90625 274.273438 168.804688 254.484375 169.203125 C 252.960938 169.203125 250.976562 169.863281 250.050781 171.125 C 241.84375 181.988281 233.765625 193.054688 226.023438 203.457031 C 230.523438 203.789062 236.546875 204.054688 242.503906 204.582031 C 248.59375 205.113281 253.359375 207.632812 253.492188 216.644531 C 253.691406 225.652344 249.058594 228.238281 242.96875 229.363281 C 218.808594 233.671875 194.582031 237.644531 170.492188 242.484375 C 135.476562 249.574219 100.527344 257.191406 65.648438 265.011719 C 59.691406 266.335938 54 269.980469 48.238281 272.566406 C 48.503906 273.558594 48.769531 274.550781 49.035156 275.546875 Z M 49.035156 275.546875 " fill-opacity="1" fill-rule="nonzero"/></g><g clip-path="url(#32c6592d03)"><path fill="#5988ff" d="M 28.582031 84.65625 C 48.703125 79.222656 68.691406 72.796875 89.011719 68.488281 C 126.410156 60.539062 163.804688 52.453125 201.535156 47.15625 C 221.457031 44.371094 241.910156 47.15625 262.097656 47.949219 C 266.398438 48.148438 270.765625 50.335938 274.871094 52.324219 C 289.035156 59.214844 293.535156 71.734375 288.703125 90.421875 C 257.859375 90.15625 226.949219 90.421875 196.039062 84.65625 C 175.324219 80.746094 153.945312 81.277344 132.894531 81.609375 C 98.210938 82.203125 63.53125 84.257812 28.914062 85.648438 C 28.714844 85.320312 28.648438 84.988281 28.582031 84.65625 Z M 124.355469 243.410156 C 140.441406 240.296875 156.523438 236.785156 172.675781 234.332031 C 182.273438 232.875 190.480469 229.5625 197.628906 220.816406 C 216.691406 197.492188 236.347656 174.964844 255.609375 151.84375 C 259.847656 146.742188 263.355469 140.710938 268.847656 132.695312 C 254.152344 135.410156 241.910156 138.722656 229.664062 139.652344 C 211.132812 140.976562 195.972656 148.59375 182.933594 165.558594 C 163.410156 190.933594 142.625 214.855469 122.371094 239.433594 C 123.035156 240.695312 123.695312 242.085938 124.355469 243.410156 Z M 87.621094 330.871094 C 102.847656 316.097656 118.070312 301.320312 133.292969 286.609375 C 123.164062 284.492188 113.832031 284.292969 104.5 284.625 C 102.910156 284.691406 100.59375 286.347656 100 288.070312 C 94.902344 301.519531 90.136719 315.167969 85.238281 328.683594 C 85.96875 329.414062 86.761719 330.144531 87.621094 330.871094 Z M 87.621094 330.871094 " fill-opacity="1" fill-rule="nonzero"/></g></svg>