<svg xmlns="http://www.w3.org/2000/svg" xmlns:xlink="http://www.w3.org/1999/xlink" width="500" zoomAndPan="magnify" viewBox="0 0 375 374.999991" height="500" preserveAspectRatio="xMidYMid meet" version="1.0"><defs><clipPath id="46c376408a"><path d="M 6.601562 40 L 285 40 L 285 342.472656 L 6.601562 342.472656 Z M 6.601562 40 " clip-rule="nonzero"/></clipPath><clipPath id="f2077cf8f2"><path d="M 89 48 L 126 48 L 126 261 L 89 261 Z M 89 48 " clip-rule="nonzero"/></clipPath><clipPath id="b59b116732"><path d="M 54.875 14.734375 L 125.382812 37.15625 L 54.421875 260.304688 L -16.085938 237.882812 Z M 54.875 14.734375 " clip-rule="nonzero"/></clipPath><clipPath id="a4dad9a5a1"><path d="M 54.875 14.734375 L 228.433594 69.925781 L 157.472656 293.074219 L -16.085938 237.882812 Z M 54.875 14.734375 " clip-rule="nonzero"/></clipPath><clipPath id="eabcdc55b3"><path d="M 54.875 14.734375 L 228.433594 69.925781 L 157.472656 293.074219 L -16.085938 237.882812 Z M 54.875 14.734375 " clip-rule="nonzero"/></clipPath><clipPath id="c5cbe592da"><path d="M 18 32 L 124 32 L 124 260 L 18 260 Z M 18 32 " clip-rule="nonzero"/></clipPath><clipPath id="f121d608dc"><path d="M 54.875 14.734375 L 125.382812 37.15625 L 54.421875 260.304688 L -16.085938 237.882812 Z M 54.875 14.734375 " clip-rule="nonzero"/></clipPath><clipPath id="cb8f169dbc"><path d="M 54.875 14.734375 L 228.433594 69.925781 L 157.472656 293.074219 L -16.085938 237.882812 Z M 54.875 14.734375 " clip-rule="nonzero"/></clipPath><clipPath id="e739921331"><path d="M 54.875 14.734375 L 228.433594 69.925781 L 157.472656 293.074219 L -16.085938 237.882812 Z M 54.875 14.734375 " clip-rule="nonzero"/></clipPath><clipPath id="51ec7e6182"><path d="M 252 115 L 357 115 L 357 343 L 252 343 Z M 252 115 " clip-rule="nonzero"/></clipPath><clipPath id="3a6b14a966"><path d="M 321.992188 115.164062 L 390.976562 137.015625 L 320.265625 360.242188 L 251.285156 338.390625 Z M 321.992188 115.164062 " clip-rule="nonzero"/></clipPath><clipPath id="bb5ef870ea"><path d="M 217.378906 82.027344 L 391 137.023438 L 320.289062 360.25 L 146.671875 305.253906 Z M 217.378906 82.027344 " clip-rule="nonzero"/></clipPath><clipPath id="fcf1a96dc4"><path d="M 217.378906 82.027344 L 391 137.023438 L 320.289062 360.25 L 146.671875 305.253906 Z M 217.378906 82.027344 " clip-rule="nonzero"/></clipPath><clipPath id="c5224d6aa3"><path d="M 251 115 L 286 115 L 286 327 L 251 327 Z M 251 115 " clip-rule="nonzero"/></clipPath><clipPath id="7fddb4df89"><path d="M 321.992188 115.164062 L 390.976562 137.015625 L 320.265625 360.242188 L 251.285156 338.390625 Z M 321.992188 115.164062 " clip-rule="nonzero"/></clipPath><clipPath id="a9dd865a39"><path d="M 217.378906 82.027344 L 391 137.023438 L 320.289062 360.25 L 146.671875 305.253906 Z M 217.378906 82.027344 " clip-rule="nonzero"/></clipPath><clipPath id="c0a58e51a2"><path d="M 217.378906 82.027344 L 391 137.023438 L 320.289062 360.25 L 146.671875 305.253906 Z M 217.378906 82.027344 " clip-rule="nonzero"/></clipPath></defs><rect x="-37.5" width="450" fill="#ffffff" y="-37.499999" height="449.999989" fill-opacity="1"/><rect x="-37.5" width="450" fill="#ffffff" y="-37.499999" height="449.999989" fill-opacity="1"/><path fill="#000000" d="M 157.222656 171.203125 C 147.390625 182.632812 139.171875 192.59375 130.605469 201.851562 C 128.570312 204.09375 124.777344 205.496094 122.105469 204.9375 C 104.128906 201.429688 90.292969 184.667969 87.625 163.90625 C 84.464844 139.148438 91.769531 116.214844 108.621094 106.816406 C 119.859375 100.574219 132.78125 95.664062 145.003906 95.453125 C 210.175781 94.332031 275.347656 94.824219 340.59375 94.824219 C 341.367188 94.824219 342.136719 95.316406 343.894531 98.050781 C 338.34375 101.277344 333.148438 105.835938 327.320312 107.449219 C 302.035156 114.460938 276.824219 121.753906 251.261719 126.804688 C 215.792969 133.820312 180.046875 138.867188 144.441406 144.761719 C 138.402344 145.742188 133.484375 148.054688 133.484375 157.175781 C 133.484375 166.082031 138.261719 168.957031 144.230469 170.007812 C 147.8125 170.710938 151.535156 170.710938 157.222656 171.203125 Z M 28.421875 283.910156 C 29.894531 284.121094 31.300781 284.398438 32.773438 284.398438 C 97.597656 284.398438 162.417969 284.75 227.242188 283.980469 C 239.390625 283.839844 252.03125 281.3125 263.480469 276.476562 C 285.8125 267.007812 295.925781 240.074219 290.800781 209.355469 C 287.21875 187.964844 267.414062 170.921875 246.414062 171.339844 C 244.800781 171.339844 242.691406 172.042969 241.710938 173.375 C 233 184.878906 224.433594 196.589844 216.214844 207.601562 C 220.992188 207.953125 227.382812 208.234375 233.703125 208.792969 C 240.164062 209.355469 245.21875 212.019531 245.359375 221.558594 C 245.570312 231.097656 240.65625 233.832031 234.195312 235.023438 C 208.558594 239.582031 182.855469 243.792969 157.292969 248.910156 C 120.140625 256.414062 83.058594 264.480469 46.046875 272.757812 C 39.726562 274.160156 33.6875 278.019531 27.578125 280.753906 C 27.859375 281.804688 28.140625 282.855469 28.421875 283.910156 Z M 28.421875 283.910156 " fill-opacity="1" fill-rule="nonzero"/><g clip-path="url(#46c376408a)"><path fill="#5988ff" d="M 6.71875 81.847656 C 28.070312 76.097656 49.277344 69.292969 70.839844 64.734375 C 110.519531 56.320312 150.199219 47.761719 190.230469 42.152344 C 211.371094 39.207031 233.070312 42.152344 254.492188 42.992188 C 259.054688 43.203125 263.691406 45.519531 268.046875 47.621094 C 283.074219 54.917969 287.851562 68.171875 282.722656 87.949219 C 249.996094 87.671875 217.199219 87.949219 184.402344 81.847656 C 162.417969 77.710938 139.734375 78.273438 117.402344 78.621094 C 80.601562 79.253906 43.800781 81.429688 7.070312 82.902344 C 6.859375 82.550781 6.789062 82.199219 6.71875 81.847656 Z M 108.34375 249.894531 C 125.40625 246.597656 142.472656 242.878906 159.609375 240.285156 C 169.792969 238.742188 178.503906 235.234375 186.085938 225.976562 C 206.3125 201.289062 227.171875 177.445312 247.609375 152.964844 C 252.101562 147.566406 255.824219 141.183594 261.65625 132.695312 C 246.0625 135.574219 233.070312 139.078125 220.078125 140.0625 C 200.414062 141.464844 184.332031 149.53125 170.496094 167.484375 C 149.777344 194.347656 127.726562 219.664062 106.234375 245.683594 C 106.9375 247.019531 107.640625 248.492188 108.34375 249.894531 Z M 69.363281 342.472656 C 85.515625 326.832031 101.671875 311.191406 117.824219 295.621094 C 107.078125 293.378906 97.175781 293.167969 87.273438 293.519531 C 85.585938 293.585938 83.128906 295.339844 82.496094 297.164062 C 77.089844 311.402344 72.03125 325.851562 66.835938 340.15625 C 67.609375 340.929688 68.453125 341.699219 69.363281 342.472656 Z M 69.363281 342.472656 " fill-opacity="1" fill-rule="nonzero"/></g><g clip-path="url(#f2077cf8f2)"><g clip-path="url(#b59b116732)"><g clip-path="url(#a4dad9a5a1)"><g clip-path="url(#eabcdc55b3)"><path fill="#000000" d="M 158.550781 75.007812 L 152.355469 73.035156 L 160.238281 48.242188 L 166.433594 50.210938 C 186.964844 56.742188 198.3125 78.683594 191.78125 99.222656 L 177.984375 142.613281 C 176.742188 146.515625 177.410156 150.773438 179.785156 154.109375 L 191.109375 169.992188 C 193.371094 173.171875 194.089844 177.203125 193.0625 180.96875 C 192.035156 184.734375 189.371094 187.84375 185.804688 189.429688 L 164.6875 198.832031 C 161.292969 200.34375 158.707031 203.234375 157.582031 206.777344 L 144.476562 247.988281 C 137.941406 268.527344 116.003906 279.886719 95.476562 273.359375 L 89.277344 271.386719 L 97.164062 246.59375 L 103.359375 248.5625 C 110.203125 250.742188 117.515625 246.953125 119.691406 240.109375 L 132.796875 198.894531 C 136.175781 188.269531 143.933594 179.597656 154.117188 175.066406 L 160.691406 172.136719 L 158.609375 169.214844 C 151.484375 159.214844 149.480469 146.441406 153.203125 134.734375 L 167 91.34375 C 169.175781 84.496094 165.394531 77.183594 158.550781 75.007812 Z M 158.550781 75.007812 " fill-opacity="1" fill-rule="evenodd"/></g></g></g></g><g clip-path="url(#c5cbe592da)"><g clip-path="url(#f121d608dc)"><g clip-path="url(#cb8f169dbc)"><g clip-path="url(#e739921331)"><path fill="#000000" d="M 108.984375 59.246094 L 115.179688 61.214844 L 123.066406 36.421875 L 116.871094 34.449219 C 96.339844 27.921875 74.402344 39.28125 67.871094 59.820312 L 54.074219 103.210938 C 52.832031 107.113281 49.828125 110.203125 45.960938 111.550781 L 27.542969 117.980469 C 23.859375 119.265625 20.945312 122.140625 19.609375 125.8125 C 18.273438 129.480469 18.652344 133.554688 20.648438 136.910156 L 32.457031 156.78125 C 34.355469 159.976562 34.796875 163.832031 33.667969 167.371094 L 20.5625 208.585938 C 14.03125 229.125 25.378906 251.066406 45.910156 257.597656 L 52.105469 259.566406 L 59.988281 234.773438 L 53.792969 232.800781 C 46.953125 230.625 43.167969 223.3125 45.347656 216.464844 L 58.453125 175.253906 C 61.828125 164.628906 60.503906 153.066406 54.8125 143.484375 L 51.136719 137.296875 L 54.523438 136.113281 C 66.117188 132.066406 75.132812 122.796875 78.855469 111.089844 L 92.652344 67.703125 C 94.828125 60.855469 102.144531 57.070312 108.984375 59.246094 Z M 108.984375 59.246094 " fill-opacity="1" fill-rule="evenodd"/></g></g></g></g><g clip-path="url(#51ec7e6182)"><g clip-path="url(#3a6b14a966)"><g clip-path="url(#bb5ef870ea)"><g clip-path="url(#fcf1a96dc4)"><path fill="#000000" d="M 321.125 142.179688 L 314.925781 140.21875 L 322.78125 115.414062 L 328.980469 117.378906 C 349.519531 123.882812 360.890625 145.816406 354.382812 166.363281 L 340.632812 209.765625 C 339.398438 213.671875 340.070312 217.925781 342.449219 221.257812 L 353.789062 237.132812 C 356.054688 240.308594 356.78125 244.335938 355.753906 248.105469 C 354.730469 251.875 352.070312 254.984375 348.507812 256.574219 L 327.398438 266 C 324.007812 267.515625 321.421875 270.410156 320.300781 273.953125 L 307.242188 315.179688 C 300.734375 335.726562 278.808594 347.109375 258.269531 340.605469 L 252.074219 338.640625 L 259.929688 313.839844 L 266.128906 315.800781 C 272.972656 317.96875 280.28125 314.175781 282.453125 307.328125 L 295.511719 266.097656 C 298.878906 255.472656 306.625 246.789062 316.804688 242.246094 L 323.375 239.308594 L 321.289062 236.390625 C 314.152344 226.398438 312.132812 213.625 315.84375 201.914062 L 329.589844 158.507812 C 331.761719 151.660156 327.96875 144.351562 321.125 142.179688 Z M 321.125 142.179688 " fill-opacity="1" fill-rule="evenodd"/></g></g></g></g><g clip-path="url(#c5224d6aa3)"><g clip-path="url(#7fddb4df89)"><g clip-path="url(#a9dd865a39)"><g clip-path="url(#c0a58e51a2)"><path fill="#000000" d="M 271.542969 126.476562 L 277.738281 128.4375 L 285.597656 103.636719 L 279.398438 101.671875 C 258.859375 95.167969 236.933594 106.550781 230.425781 127.097656 L 216.675781 170.503906 C 215.441406 174.40625 212.441406 177.5 208.578125 178.851562 L 190.167969 185.304688 C 186.480469 186.59375 183.570312 189.472656 182.238281 193.140625 C 180.90625 196.8125 181.292969 200.886719 183.289062 204.242188 L 195.121094 224.097656 C 197.023438 227.292969 197.46875 231.144531 196.347656 234.6875 L 183.285156 275.914062 C 176.777344 296.460938 188.152344 318.394531 208.6875 324.898438 L 214.886719 326.863281 L 222.742188 302.058594 L 216.546875 300.09375 C 209.699219 297.925781 205.910156 290.617188 208.078125 283.769531 L 221.136719 242.539062 C 224.503906 231.914062 223.167969 220.351562 217.460938 210.777344 L 213.777344 204.59375 L 217.167969 203.40625 C 228.753906 199.347656 237.757812 190.066406 241.46875 178.355469 L 255.21875 134.949219 C 257.386719 128.101562 264.695312 124.308594 271.542969 126.476562 Z M 271.542969 126.476562 " fill-opacity="1" fill-rule="evenodd"/></g></g></g></g></svg>