<svg xmlns="http://www.w3.org/2000/svg" xmlns:xlink="http://www.w3.org/1999/xlink" width="500" zoomAndPan="magnify" viewBox="0 0 375 374.999991" height="500" preserveAspectRatio="xMidYMid meet" version="1.0"><defs><g/><clipPath id="7701c1f310"><path d="M 46 178 L 97.574219 178 L 97.574219 210 L 46 210 Z M 46 178 " clip-rule="nonzero"/></clipPath><clipPath id="009c09fa24"><path d="M 42.824219 169.695312 L 88 169.695312 L 88 218.445312 L 42.824219 218.445312 Z M 42.824219 169.695312 " clip-rule="nonzero"/></clipPath></defs><rect x="-37.5" width="450" fill="#ffffff" y="-37.499999" height="449.999989" fill-opacity="1"/><rect x="-37.5" width="450" fill="#ffffff" y="-37.499999" height="449.999989" fill-opacity="1"/><rect x="-37.5" width="450" fill="#ffffff" y="-37.499999" height="449.999989" fill-opacity="1"/><g clip-path="url(#7701c1f310)"><path fill="#000000" d="M 67.265625 190.914062 C 65.671875 192.75 64.335938 194.351562 62.945312 195.839844 C 62.617188 196.203125 62 196.425781 61.566406 196.335938 C 58.648438 195.773438 56.40625 193.078125 55.972656 189.742188 C 55.457031 185.761719 56.644531 182.074219 59.378906 180.5625 C 61.203125 179.5625 63.300781 178.773438 65.28125 178.738281 C 75.859375 178.558594 86.433594 178.636719 97.023438 178.636719 C 97.148438 178.636719 97.273438 178.714844 97.558594 179.15625 C 96.65625 179.671875 95.816406 180.40625 94.867188 180.664062 C 90.765625 181.792969 86.675781 182.964844 82.527344 183.777344 C 76.769531 184.90625 70.96875 185.714844 65.191406 186.664062 C 64.210938 186.820312 63.414062 187.195312 63.414062 188.660156 C 63.414062 190.089844 64.1875 190.554688 65.15625 190.722656 C 65.738281 190.835938 66.34375 190.835938 67.265625 190.914062 Z M 46.363281 209.03125 C 46.601562 209.066406 46.832031 209.109375 47.070312 209.109375 C 57.589844 209.109375 68.109375 209.167969 78.628906 209.042969 C 80.601562 209.019531 82.652344 208.613281 84.507812 207.835938 C 88.132812 206.316406 89.773438 201.984375 88.941406 197.046875 C 88.359375 193.609375 85.148438 190.867188 81.738281 190.9375 C 81.476562 190.9375 81.136719 191.050781 80.976562 191.265625 C 79.5625 193.113281 78.171875 194.996094 76.839844 196.765625 C 77.613281 196.820312 78.652344 196.867188 79.675781 196.957031 C 80.726562 197.046875 81.546875 197.476562 81.570312 199.007812 C 81.601562 200.542969 80.804688 200.980469 79.757812 201.171875 C 75.597656 201.90625 71.425781 202.582031 67.277344 203.40625 C 61.25 204.613281 55.230469 205.910156 49.222656 207.238281 C 48.199219 207.464844 47.21875 208.085938 46.226562 208.523438 C 46.273438 208.695312 46.316406 208.863281 46.363281 209.03125 Z M 46.363281 209.03125 " fill-opacity="1" fill-rule="nonzero"/></g><g clip-path="url(#009c09fa24)"><path fill="#5988ff" d="M 42.84375 176.550781 C 46.308594 175.625 49.75 174.53125 53.246094 173.800781 C 59.6875 172.445312 66.125 171.070312 72.621094 170.167969 C 76.050781 169.695312 79.574219 170.167969 83.050781 170.304688 C 83.789062 170.339844 84.542969 170.710938 85.25 171.050781 C 87.6875 172.222656 88.464844 174.351562 87.632812 177.53125 C 82.320312 177.488281 77 177.53125 71.675781 176.550781 C 68.109375 175.886719 64.429688 175.976562 60.804688 176.03125 C 54.832031 176.132812 48.859375 176.484375 42.898438 176.71875 C 42.863281 176.664062 42.855469 176.605469 42.84375 176.550781 Z M 59.332031 203.5625 C 62.101562 203.035156 64.871094 202.4375 67.652344 202.019531 C 69.304688 201.769531 70.71875 201.207031 71.949219 199.71875 C 75.230469 195.75 78.617188 191.917969 81.933594 187.984375 C 82.664062 187.113281 83.265625 186.089844 84.210938 184.726562 C 81.683594 185.1875 79.574219 185.75 77.464844 185.910156 C 74.273438 186.132812 71.664062 187.429688 69.417969 190.316406 C 66.058594 194.632812 62.480469 198.703125 58.992188 202.886719 C 59.105469 203.101562 59.21875 203.339844 59.332031 203.5625 Z M 53.007812 218.445312 C 55.628906 215.933594 58.25 213.417969 60.871094 210.914062 C 59.128906 210.554688 57.519531 210.519531 55.914062 210.578125 C 55.640625 210.585938 55.242188 210.871094 55.140625 211.164062 C 54.261719 213.453125 53.441406 215.773438 52.597656 218.074219 C 52.722656 218.199219 52.859375 218.320312 53.007812 218.445312 Z M 53.007812 218.445312 " fill-opacity="1" fill-rule="nonzero"/></g><g fill="#000000" fill-opacity="1"><g transform="translate(111.173784, 203.507182)"><g><path d="M 2.140625 -18.671875 L 8.421875 -18.671875 C 9.992188 -18.671875 11.378906 -18.40625 12.578125 -17.875 C 13.773438 -17.351562 14.71875 -16.640625 15.40625 -15.734375 C 16.101562 -14.828125 16.617188 -13.835938 16.953125 -12.765625 C 17.296875 -11.691406 17.46875 -10.546875 17.46875 -9.328125 C 17.46875 -8.441406 17.375 -7.570312 17.1875 -6.71875 C 17 -5.863281 16.671875 -5.019531 16.203125 -4.1875 C 15.742188 -3.363281 15.175781 -2.644531 14.5 -2.03125 C 13.832031 -1.425781 12.960938 -0.9375 11.890625 -0.5625 C 10.828125 -0.1875 9.640625 0 8.328125 0 L 2.140625 0 Z M 8.75 -3.40625 C 10.4375 -3.40625 11.6875 -4 12.5 -5.1875 C 13.320312 -6.375 13.734375 -7.753906 13.734375 -9.328125 C 13.734375 -10.953125 13.332031 -12.34375 12.53125 -13.5 C 11.726562 -14.664062 10.566406 -15.25 9.046875 -15.25 L 5.734375 -15.25 L 5.734375 -3.40625 Z M 8.75 -3.40625 "/></g></g></g><g fill="#000000" fill-opacity="1"><g transform="translate(128.244203, 203.507182)"><g><path d="M 2.140625 0 L 2.140625 -18.671875 L 14.890625 -18.671875 L 14.890625 -15.25 L 5.734375 -15.25 L 5.734375 -11.328125 L 11.125 -11.328125 L 11.125 -7.921875 L 5.734375 -7.921875 L 5.734375 -3.40625 L 15.4375 -3.40625 L 15.4375 0 Z M 2.140625 0 "/></g></g></g><g fill="#000000" fill-opacity="1"><g transform="translate(143.020732, 203.507182)"><g><path d="M 17.015625 0 L 13.8125 0 L 6.40625 -10.875 C 6.15625 -11.25 5.894531 -11.722656 5.625 -12.296875 C 5.675781 -11.847656 5.703125 -11.375 5.703125 -10.875 L 5.703125 0 L 2.140625 0 L 2.140625 -18.671875 L 5.515625 -18.671875 L 12.75 -7.921875 C 13.050781 -7.421875 13.304688 -6.953125 13.515625 -6.515625 C 13.460938 -6.929688 13.4375 -7.398438 13.4375 -7.921875 L 13.4375 -18.671875 L 17.015625 -18.671875 Z M 17.015625 0 "/></g></g></g><g fill="#000000" fill-opacity="1"><g transform="translate(160.304533, 203.507182)"><g><path d="M 17.015625 0 L 13.8125 0 L 6.40625 -10.875 C 6.15625 -11.25 5.894531 -11.722656 5.625 -12.296875 C 5.675781 -11.847656 5.703125 -11.375 5.703125 -10.875 L 5.703125 0 L 2.140625 0 L 2.140625 -18.671875 L 5.515625 -18.671875 L 12.75 -7.921875 C 13.050781 -7.421875 13.304688 -6.953125 13.515625 -6.515625 C 13.460938 -6.929688 13.4375 -7.398438 13.4375 -7.921875 L 13.4375 -18.671875 L 17.015625 -18.671875 Z M 17.015625 0 "/></g></g></g><g fill="#000000" fill-opacity="1"><g transform="translate(177.588333, 203.507182)"><g><path d="M 2.265625 0 L 2.265625 -18.671875 L 5.875 -18.671875 L 5.875 0 Z M 2.265625 0 "/></g></g></g><g fill="#000000" fill-opacity="1"><g transform="translate(183.856132, 203.507182)"><g><path d="M 8.328125 0.3125 C 6.578125 0.3125 5.0625 -0.140625 3.78125 -1.046875 C 2.5 -1.953125 1.59375 -3.203125 1.0625 -4.796875 L 4.34375 -6.03125 C 4.757812 -5.132812 5.320312 -4.421875 6.03125 -3.890625 C 6.738281 -3.359375 7.535156 -3.09375 8.421875 -3.09375 C 9.347656 -3.09375 10.082031 -3.285156 10.625 -3.671875 C 11.164062 -4.066406 11.4375 -4.628906 11.4375 -5.359375 C 11.4375 -5.734375 11.347656 -6.0625 11.171875 -6.34375 C 10.992188 -6.632812 10.691406 -6.894531 10.265625 -7.125 C 9.835938 -7.351562 9.457031 -7.535156 9.125 -7.671875 C 8.800781 -7.804688 8.3125 -7.976562 7.65625 -8.1875 C 6.90625 -8.4375 6.335938 -8.628906 5.953125 -8.765625 C 5.578125 -8.910156 5.078125 -9.148438 4.453125 -9.484375 C 3.828125 -9.828125 3.351562 -10.171875 3.03125 -10.515625 C 2.71875 -10.867188 2.429688 -11.332031 2.171875 -11.90625 C 1.910156 -12.488281 1.78125 -13.132812 1.78125 -13.84375 C 1.78125 -15.300781 2.347656 -16.519531 3.484375 -17.5 C 4.628906 -18.488281 6.171875 -18.984375 8.109375 -18.984375 C 9.710938 -18.984375 11.0625 -18.582031 12.15625 -17.78125 C 13.25 -16.988281 13.972656 -15.953125 14.328125 -14.671875 L 11.09375 -13.609375 C 10.507812 -14.921875 9.441406 -15.578125 7.890625 -15.578125 C 7.109375 -15.578125 6.5 -15.421875 6.0625 -15.109375 C 5.632812 -14.796875 5.421875 -14.359375 5.421875 -13.796875 C 5.421875 -13.421875 5.597656 -13.082031 5.953125 -12.78125 C 6.304688 -12.488281 6.664062 -12.265625 7.03125 -12.109375 C 7.40625 -11.960938 7.992188 -11.757812 8.796875 -11.5 C 9.421875 -11.28125 9.898438 -11.109375 10.234375 -10.984375 C 10.578125 -10.859375 11.039062 -10.660156 11.625 -10.390625 C 12.21875 -10.128906 12.675781 -9.859375 13 -9.578125 C 13.332031 -9.296875 13.679688 -8.953125 14.046875 -8.546875 C 14.410156 -8.148438 14.671875 -7.679688 14.828125 -7.140625 C 14.984375 -6.597656 15.0625 -6.003906 15.0625 -5.359375 C 15.0625 -3.597656 14.425781 -2.210938 13.15625 -1.203125 C 11.882812 -0.191406 10.273438 0.3125 8.328125 0.3125 Z M 8.328125 0.3125 "/></g></g></g><g fill="#000000" fill-opacity="1"><g transform="translate(198.392602, 203.507182)"><g/></g></g><g fill="#000000" fill-opacity="1"><g transform="translate(203.193377, 203.507182)"><g><path d="M 8.328125 0.3125 C 6.578125 0.3125 5.0625 -0.140625 3.78125 -1.046875 C 2.5 -1.953125 1.59375 -3.203125 1.0625 -4.796875 L 4.34375 -6.03125 C 4.757812 -5.132812 5.320312 -4.421875 6.03125 -3.890625 C 6.738281 -3.359375 7.535156 -3.09375 8.421875 -3.09375 C 9.347656 -3.09375 10.082031 -3.285156 10.625 -3.671875 C 11.164062 -4.066406 11.4375 -4.628906 11.4375 -5.359375 C 11.4375 -5.734375 11.347656 -6.0625 11.171875 -6.34375 C 10.992188 -6.632812 10.691406 -6.894531 10.265625 -7.125 C 9.835938 -7.351562 9.457031 -7.535156 9.125 -7.671875 C 8.800781 -7.804688 8.3125 -7.976562 7.65625 -8.1875 C 6.90625 -8.4375 6.335938 -8.628906 5.953125 -8.765625 C 5.578125 -8.910156 5.078125 -9.148438 4.453125 -9.484375 C 3.828125 -9.828125 3.351562 -10.171875 3.03125 -10.515625 C 2.71875 -10.867188 2.429688 -11.332031 2.171875 -11.90625 C 1.910156 -12.488281 1.78125 -13.132812 1.78125 -13.84375 C 1.78125 -15.300781 2.347656 -16.519531 3.484375 -17.5 C 4.628906 -18.488281 6.171875 -18.984375 8.109375 -18.984375 C 9.710938 -18.984375 11.0625 -18.582031 12.15625 -17.78125 C 13.25 -16.988281 13.972656 -15.953125 14.328125 -14.671875 L 11.09375 -13.609375 C 10.507812 -14.921875 9.441406 -15.578125 7.890625 -15.578125 C 7.109375 -15.578125 6.5 -15.421875 6.0625 -15.109375 C 5.632812 -14.796875 5.421875 -14.359375 5.421875 -13.796875 C 5.421875 -13.421875 5.597656 -13.082031 5.953125 -12.78125 C 6.304688 -12.488281 6.664062 -12.265625 7.03125 -12.109375 C 7.40625 -11.960938 7.992188 -11.757812 8.796875 -11.5 C 9.421875 -11.28125 9.898438 -11.109375 10.234375 -10.984375 C 10.578125 -10.859375 11.039062 -10.660156 11.625 -10.390625 C 12.21875 -10.128906 12.675781 -9.859375 13 -9.578125 C 13.332031 -9.296875 13.679688 -8.953125 14.046875 -8.546875 C 14.410156 -8.148438 14.671875 -7.679688 14.828125 -7.140625 C 14.984375 -6.597656 15.0625 -6.003906 15.0625 -5.359375 C 15.0625 -3.597656 14.425781 -2.210938 13.15625 -1.203125 C 11.882812 -0.191406 10.273438 0.3125 8.328125 0.3125 Z M 8.328125 0.3125 "/></g></g></g><g fill="#000000" fill-opacity="1"><g transform="translate(217.729846, 203.507182)"><g><path d="M 9.3125 0.296875 C 7.90625 0.296875 6.675781 0.015625 5.625 -0.546875 C 4.570312 -1.109375 3.753906 -1.863281 3.171875 -2.8125 C 2.585938 -3.757812 2.15625 -4.773438 1.875 -5.859375 C 1.601562 -6.953125 1.46875 -8.109375 1.46875 -9.328125 C 1.46875 -10.472656 1.609375 -11.582031 1.890625 -12.65625 C 2.179688 -13.726562 2.617188 -14.75 3.203125 -15.71875 C 3.785156 -16.6875 4.601562 -17.46875 5.65625 -18.0625 C 6.707031 -18.664062 7.925781 -18.96875 9.3125 -18.96875 C 10.976562 -18.96875 12.382812 -18.554688 13.53125 -17.734375 C 14.675781 -16.921875 15.488281 -15.925781 15.96875 -14.75 L 12.75 -13.28125 C 12.25 -14.039062 11.738281 -14.597656 11.21875 -14.953125 C 10.707031 -15.316406 10.070312 -15.5 9.3125 -15.5 C 8.332031 -15.5 7.515625 -15.164062 6.859375 -14.5 C 6.210938 -13.832031 5.773438 -13.054688 5.546875 -12.171875 C 5.316406 -11.296875 5.203125 -10.347656 5.203125 -9.328125 C 5.203125 -7.710938 5.550781 -6.28125 6.25 -5.03125 C 6.957031 -3.789062 7.976562 -3.171875 9.3125 -3.171875 C 10.601562 -3.171875 11.734375 -3.972656 12.703125 -5.578125 L 16 -4.328125 C 14.613281 -1.242188 12.382812 0.296875 9.3125 0.296875 Z M 9.3125 0.296875 "/></g></g></g><g fill="#000000" fill-opacity="1"><g transform="translate(232.93315, 203.507182)"><g><path d="M 13.546875 0 L 13.546875 -7.890625 L 5.734375 -7.890625 L 5.734375 0 L 2.140625 0 L 2.140625 -18.671875 L 5.734375 -18.671875 L 5.734375 -11.3125 L 13.546875 -11.3125 L 13.546875 -18.671875 L 17.15625 -18.671875 L 17.15625 0 Z M 13.546875 0 "/></g></g></g><g fill="#000000" fill-opacity="1"><g transform="translate(250.350319, 203.507182)"><g><path d="M 17.015625 0 L 13.8125 0 L 6.40625 -10.875 C 6.15625 -11.25 5.894531 -11.722656 5.625 -12.296875 C 5.675781 -11.847656 5.703125 -11.375 5.703125 -10.875 L 5.703125 0 L 2.140625 0 L 2.140625 -18.671875 L 5.515625 -18.671875 L 12.75 -7.921875 C 13.050781 -7.421875 13.304688 -6.953125 13.515625 -6.515625 C 13.460938 -6.929688 13.4375 -7.398438 13.4375 -7.921875 L 13.4375 -18.671875 L 17.015625 -18.671875 Z M 17.015625 0 "/></g></g></g><g fill="#000000" fill-opacity="1"><g transform="translate(267.634115, 203.507182)"><g><path d="M 2.140625 0 L 2.140625 -18.671875 L 14.890625 -18.671875 L 14.890625 -15.25 L 5.734375 -15.25 L 5.734375 -11.328125 L 11.125 -11.328125 L 11.125 -7.921875 L 5.734375 -7.921875 L 5.734375 -3.40625 L 15.4375 -3.40625 L 15.4375 0 Z M 2.140625 0 "/></g></g></g><g fill="#000000" fill-opacity="1"><g transform="translate(282.41064, 203.507182)"><g><path d="M 2.265625 0 L 2.265625 -18.671875 L 5.875 -18.671875 L 5.875 0 Z M 2.265625 0 "/></g></g></g><g fill="#000000" fill-opacity="1"><g transform="translate(288.678439, 203.507182)"><g><path d="M 2.140625 -18.671875 L 8.421875 -18.671875 C 9.992188 -18.671875 11.378906 -18.40625 12.578125 -17.875 C 13.773438 -17.351562 14.71875 -16.640625 15.40625 -15.734375 C 16.101562 -14.828125 16.617188 -13.835938 16.953125 -12.765625 C 17.296875 -11.691406 17.46875 -10.546875 17.46875 -9.328125 C 17.46875 -8.441406 17.375 -7.570312 17.1875 -6.71875 C 17 -5.863281 16.671875 -5.019531 16.203125 -4.1875 C 15.742188 -3.363281 15.175781 -2.644531 14.5 -2.03125 C 13.832031 -1.425781 12.960938 -0.9375 11.890625 -0.5625 C 10.828125 -0.1875 9.640625 0 8.328125 0 L 2.140625 0 Z M 8.75 -3.40625 C 10.4375 -3.40625 11.6875 -4 12.5 -5.1875 C 13.320312 -6.375 13.734375 -7.753906 13.734375 -9.328125 C 13.734375 -10.953125 13.332031 -12.34375 12.53125 -13.5 C 11.726562 -14.664062 10.566406 -15.25 9.046875 -15.25 L 5.734375 -15.25 L 5.734375 -3.40625 Z M 8.75 -3.40625 "/></g></g></g><g fill="#000000" fill-opacity="1"><g transform="translate(305.748855, 203.507182)"><g><path d="M 2.140625 0 L 2.140625 -18.671875 L 14.890625 -18.671875 L 14.890625 -15.25 L 5.734375 -15.25 L 5.734375 -11.328125 L 11.125 -11.328125 L 11.125 -7.921875 L 5.734375 -7.921875 L 5.734375 -3.40625 L 15.4375 -3.40625 L 15.4375 0 Z M 2.140625 0 "/></g></g></g><g fill="#000000" fill-opacity="1"><g transform="translate(320.52538, 203.507182)"><g><path d="M 2.140625 0 L 2.140625 -18.671875 L 10.796875 -18.671875 C 12.984375 -18.671875 14.570312 -18.125 15.5625 -17.03125 C 16.550781 -15.9375 17.046875 -14.535156 17.046875 -12.828125 C 17.046875 -11.691406 16.726562 -10.613281 16.09375 -9.59375 C 15.46875 -8.570312 14.578125 -7.851562 13.421875 -7.4375 L 17.046875 0 L 12.984375 0 L 9.5 -6.96875 L 5.734375 -6.96875 L 5.734375 0 Z M 5.734375 -10.375 L 10.859375 -10.375 C 11.710938 -10.375 12.332031 -10.601562 12.71875 -11.0625 C 13.113281 -11.53125 13.3125 -12.117188 13.3125 -12.828125 C 13.3125 -13.523438 13.117188 -14.101562 12.734375 -14.5625 C 12.347656 -15.019531 11.722656 -15.25 10.859375 -15.25 L 5.734375 -15.25 Z M 5.734375 -10.375 "/></g></g></g></svg>